<?xml version="1.0" standalone="no"?><!DOCTYPE svg PUBLIC "-//W3C//DTD SVG 1.1//EN" "http://www.w3.org/Graphics/SVG/1.1/DTD/svg11.dtd"><svg t="1747656612048" class="icon" viewBox="0 0 1024 1024" version="1.1" xmlns="http://www.w3.org/2000/svg" p-id="1154" xmlns:xlink="http://www.w3.org/1999/xlink" width="200" height="200"><path d="M814.2 889.4H210.4c-34.4 0-62.3-28-62.3-62.3v-34.5c0-20.1 9.7-39 26.1-50.7l32.4-23.1c40.7-29.1 84.7-53.8 130.7-73.6l54.1-23.2c3.2-1.4 5.3-4.5 5.3-8v-80.2c0-2.6-1.2-5.1-3.2-6.7-43.2-35.5-67.9-88-67.9-144v-71c0-102.9 83.7-186.6 186.6-186.6 102.9 0 186.6 83.7 186.6 186.6v71c0.1 55.9-24.7 108.4-67.9 144-2 1.6-3.1 4.1-3.1 6.7V614c0 3.6 2.3 6.9 5.7 8.2l77.1 29c42.1 15.8 81.1 38.4 115.7 67.3l27.7 23.1c14.2 11.9 22.4 29.3 22.4 47.9v37.8c0.1 34.2-27.9 62.1-62.2 62.1zM512.3 172c-77.3 0-140.1 62.9-140.1 140.1v71c-0.1 42 18.5 81.4 50.9 108.1 12.8 10.5 20.1 26.1 20.1 42.6V614c0 22.1-13.1 42-33.5 50.7L355.6 688c-43 18.4-84 41.5-122 68.7l-32.4 23.1c-4.1 3-6.6 7.8-6.6 12.9v34.5c0 8.7 7.1 15.8 15.8 15.8h603.8c8.7 0 15.8-7.1 15.8-15.8v-37.8c0-4.7-2.1-9.1-5.7-12.2l-27.7-23.1c-30.6-25.5-65-45.5-102.3-59.4l-77.1-29c-21.4-8-35.8-28.8-35.8-51.7v-80.2c0-16.5 7.3-32 20.1-42.5 32.4-26.7 51-66.1 51-108.1v-71.1c-0.1-77.2-63-140.1-140.2-140.1z" fill="#2c2c2c" p-id="1155"></path></svg>